<svg width="16" height="18" xmlns="http://www.w3.org/2000/svg">

 <g>
  <title>background</title>
  <rect fill="none" id="canvas_background" height="402" width="582" y="-1" x="-1"/>
 </g>
 <g>
  <title>Layer 1</title>
  <path stroke="#ff3333" stroke-opacity="0" id="svg_1" fill="#ff3333" d="m2.67725,8.91791c0,-2.77925 0,-5.5585 0,-8.52303c2.80298,0 5.34084,-0.11117 7.87865,0.03706c2.6515,0.14822 4.659,2.59397 4.5833,5.26205c-0.0758,2.59396 -2.1212,4.85441 -4.7727,4.96561c-1.89387,0.1111 -3.74992,0.037 -5.71958,0.037l-1.96967,-1.77869zm1.96967,-6.81842c0,2.37162 0,4.59502 0,6.89254c0.49241,0.03705 1.96967,0 2.34845,0c1.06059,0 2.53785,0.03705 3.37113,-0.07412c1.7803,-0.18528 3.0682,-1.7046 3.0303,-3.40921c-0.0379,-1.77872 -1.4015,-3.29804 -3.2575,-3.40921c-1.78032,-0.07412 -3.59847,0 -5.49238,0z"/>
  <path id="svg_2" fill="#ff3333" d="m8.24571,11.1043c-0.56817,0 -1.17423,0 -1.78028,0c-0.60605,0 -1.2121,0 -1.81815,0l0,-0.7412c0.60605,0 1.2121,0 1.81815,0c1.32574,0 2.61362,0.0371 3.90147,-0.037c2.4242,-0.1482 4.356,-2.14929 4.3939,-4.63208c0.0757,-2.55691 -1.8561,-4.74326 -4.2424,-4.89149c-1.74239,-0.11117 -3.48479,-0.07411 -5.30295,-0.03706c-0.71968,0 -1.43937,0.03706 -2.15906,0.03706l0,8.15247l-0.75756,0l0,-8.8936l0.37878,0c0.8712,0 1.70452,0 2.53784,-0.03706c1.85604,-0.03706 3.59844,-0.03705 5.37875,0.03706c2.803,0.14823 4.9999,2.70514 4.962,5.63262c-0.0758,2.85336 -2.3106,5.18788 -5.1136,5.33618c-0.75752,0.0741 -1.4772,0.0741 -2.19689,0.0741zm0,-1.74168c-0.37878,0 -0.79544,0 -1.24997,0c-0.15152,0 -0.45453,0 -0.79544,0c-0.60605,0 -1.28786,0 -1.59089,0l-0.34091,-0.03706l0,-7.63367l0.37878,0c0.60605,0 1.17424,0 1.74241,0c1.28786,0 2.53784,-0.03705 3.78781,0.03706c2.0076,0.11117 3.5984,1.77872 3.6363,3.77978c0.0379,1.92695 -1.4772,3.59449 -3.3712,3.77977c-0.49237,0.07412 -1.24993,0.07412 -2.19689,0.07412zm-1.4015,-0.74113c0.07576,0 0.11365,0 0.15153,0c1.59088,0.03706 2.68934,0 3.33326,-0.03706c1.5151,-0.14823 2.7273,-1.48227 2.6894,-3.03865c0,-1.63049 -1.2879,-2.96453 -2.9166,-3.03864c-1.21215,-0.07411 -2.42425,-0.03706 -3.71211,-0.03706c-0.45454,0 -0.90909,0 -1.36363,0l0,6.15141c0.34091,0 0.79546,0 1.17424,0c0.26515,0 0.4924,0 0.64391,0z"/>
  <path id="svg_3" fill="#1C62CD" d="m5.32865,8.99207l-4.35599,0l0,1.74163l4.35599,0l0,-1.74163z"/>
  <path stroke="#ff3333" id="svg_4" fill="#ff3333" d="m5.6702,10.567205l-5.11356,0l0,-1.42036l5.11356,0l0,1.42036zm-4.31813,-0.424017l3.59843,0l0,-0.572366l-3.59843,0l0,0.572366z"/>
  <path id="svg_5" fill="#1C62CD" d="m8.85134,12.4384l-7.87868,0l0,1.7416l7.87868,0l0,-1.7416z"/>
  <path stroke="#ff3333" id="svg_6" fill="none" d="m9.23,13.800707l-8.261254,0l0,-1.170313l8.261254,0l0,1.170313zm-7.536588,-0.349378l6.811922,0l0,-0.471604l-6.811922,0l0,0.471604z"/>
  <path id="svg_7" fill="#1C62CD" d="m4.64692,7.91736l-1.96967,0l0,9.70884l1.96967,0l0,-9.70884z"/>
  <path stroke="#ff3333" id="svg_8" fill="#ff3333" d="m4.526065,17.9968l-1.72724,0l0,-10.44992l1.72724,0l0,10.44992zm-1.247454,-0.7411l0.767667,0l0,-8.96769l-0.767667,0l0,8.96769z"/>
 </g>
</svg>