<?xml version="1.0" standalone="no"?>
<!DOCTYPE svg PUBLIC "-//W3C//DTD SVG 20010904//EN"
 "http://www.w3.org/TR/2001/REC-SVG-20010904/DTD/svg10.dtd">
<svg version="1.0" xmlns="http://www.w3.org/2000/svg"
 width="1280.000000pt" height="1280.000000pt" viewBox="0 0 1280.000000 1280.000000"
 preserveAspectRatio="xMidYMid meet">

<g transform="translate(0.000000,1280.000000) scale(0.100000,-0.100000)"
fill="#000000" stroke="none">
<path d="M10254 9626 c-153 -25 -296 -84 -424 -174 -36 -26 -162 -141 -280
-257 -118 -116 -244 -231 -280 -257 -223 -158 -490 -219 -700 -160 -41 11
-111 30 -154 42 -44 12 -84 24 -90 28 -6 3 -17 7 -26 7 -17 2 -77 14 -102 21
-17 5 -18 -18 -20 -353 l-3 -358 45 -23 c53 -26 65 -30 -215 63 -209 70 -330
103 -339 94 -10 -10 -616 -1753 -611 -1757 3 -3 77 -29 164 -58 88 -29 228
-81 313 -114 174 -70 527 -241 668 -324 l95 -55 352 357 c194 196 493 502 665
678 172 177 315 322 318 323 3 0 35 -24 72 -53 l67 -53 -406 -414 c-223 -228
-521 -530 -661 -671 -141 -142 -254 -259 -251 -261 2 -2 49 -34 104 -72 158
-107 349 -253 485 -370 133 -114 365 -333 359 -339 -2 -1 -177 -66 -389 -144
-212 -77 -944 -346 -1626 -596 l-1242 -456 -74 35 c-102 48 -202 69 -303 61
-295 -24 -518 -247 -550 -549 l-7 -67 -301 -229 c-504 -382 -528 -401 -515
-401 7 0 222 45 478 101 256 55 482 103 502 106 31 5 43 0 75 -24 86 -68 204
-112 324 -120 288 -19 545 172 615 457 l16 66 1286 719 c707 396 1394 780
1526 854 l240 135 68 -75 c100 -108 243 -279 332 -396 l78 -103 813 0 813 0
30 88 c154 441 188 828 107 1228 -24 118 -74 285 -112 372 l-18 42 -1 -152 c0
-138 -3 -161 -27 -235 -15 -44 -40 -107 -54 -140 l-28 -58 -6 180 c-4 99 -11
204 -18 233 -41 196 -86 312 -242 625 -166 330 -191 402 -197 563 -4 100 -1
135 17 203 23 92 89 240 145 322 44 65 33 73 -49 34 -80 -38 -192 -131 -275
-227 -80 -93 -220 -297 -295 -430 -28 -49 -54 -88 -58 -88 -18 0 -77 148 -88
223 -15 98 -3 198 52 435 73 320 84 463 44 617 -33 129 -125 268 -236 356
l-40 32 7 -75 c18 -206 -58 -398 -182 -458 -67 -33 -167 -26 -226 16 -152 106
-177 327 -68 591 119 292 338 512 662 668 113 55 339 135 381 135 17 1 19 2 7
9 -54 31 -404 49 -536 27z m-1954 -1516 c8 -5 11 -10 5 -10 -5 0 -17 5 -25 10
-8 5 -10 10 -5 10 6 0 17 -5 25 -10z"/>
<path d="M6015 8463 c-136 -5 -361 -24 -420 -34 l-60 -10 2 -527 c3 -618 5
-732 16 -725 4 2 7 -11 8 -29 0 -18 2 -44 4 -58 2 -14 6 -50 8 -80 3 -30 8
-94 12 -142 l8 -87 91 -5 c190 -11 225 -14 366 -30 264 -30 482 -68 713 -123
60 -14 112 -21 117 -17 4 5 125 347 270 759 144 413 282 805 306 872 l43 122
-52 11 c-91 20 -367 59 -527 75 -293 28 -635 39 -905 28z m-402 -50 c-7 -2
-21 -2 -30 0 -10 3 -4 5 12 5 17 0 24 -2 18 -5z"/>
</g>
</svg>
